<?xml version="1.0" standalone="no"?>
<!DOCTYPE svg PUBLIC "-//W3C//DTD SVG 1.1//EN" "http://www.w3.org/Graphics/SVG/1.1/DTD/svg11.dtd">
<svg width="100%" height="100%" viewBox="0 0 783 1031" version="1.1" xmlns="http://www.w3.org/2000/svg" xmlns:xlink="http://www.w3.org/1999/xlink" xml:space="preserve" style="fill-rule:evenodd;clip-rule:evenodd;stroke-linecap:round;stroke-linejoin:round;stroke-miterlimit:1.41421;">
    <g transform="matrix(1,0,0,1,-1200.55,-443.915)">
        <g transform="matrix(1,0,0,1,0,93)">
            <path d="M1942.35,1202.05C1936.37,1266.06 1884.81,1314.48 1792.48,1348.95L1373.32,1348.95C1303.28,1315.03 1261.8,1265.07 1243.59,1202.05L1942.35,1202.05Z" style="fill:black;stroke-width:20.83px;stroke:black;"/>
        </g>
        <g transform="matrix(1,0,0,0.836384,0,196.429)">
            <path d="M1946.91,678.113C1946.91,560.937 1867.35,465.805 1769.34,465.805L1414.2,465.805C1316.2,465.805 1236.63,560.937 1236.63,678.113L1236.63,1273.05C1236.63,1390.23 1316.2,1485.36 1414.2,1485.36L1769.34,1485.36C1867.35,1485.36 1946.91,1390.23 1946.91,1273.05L1946.91,678.113Z" style="fill:none;stroke-width:45.2px;stroke:black;"/>
        </g>
        <g transform="matrix(0.827983,0,0,0.676739,259.831,427.765)">
            <path d="M1604.32,1369.05C1604.32,1362.57 1600.03,1357.31 1594.73,1357.31L1328.24,1357.31C1322.95,1357.31 1318.65,1362.57 1318.65,1369.05L1318.65,1392.52C1318.65,1399 1322.95,1404.26 1328.24,1404.26L1594.73,1404.26C1600.03,1404.26 1604.32,1399 1604.32,1392.52L1604.32,1369.05Z" style="fill:white;"/>
        </g>
        <g transform="matrix(0.610758,0,0,0.709102,837.328,383.153)">
            <path d="M1604.32,1369.05C1604.32,1362.57 1598.22,1357.31 1590.7,1357.31L1332.28,1357.31C1324.76,1357.31 1318.65,1362.57 1318.65,1369.05L1318.65,1392.52C1318.65,1399 1324.76,1404.26 1332.28,1404.26L1590.7,1404.26C1598.22,1404.26 1604.32,1399 1604.32,1392.52L1604.32,1369.05Z" style="fill:white;"/>
        </g>
        <g transform="matrix(0.550457,0,0,0.76577,726.434,107.07)">
            <path d="M1672.35,523.981C1672.35,503.57 1649.3,486.999 1620.9,486.999L1518.01,486.999C1489.61,486.999 1466.56,503.57 1466.56,523.981L1466.56,662.686C1466.56,683.097 1489.61,699.668 1518.01,699.668L1620.9,699.668C1649.3,699.668 1672.35,683.097 1672.35,662.686L1672.35,523.981Z" style="fill:white;stroke-width:62.48px;stroke:black;"/>
        </g>
        <g transform="matrix(0.837033,0,0,1.10994,255.048,-67.598)">
            <path d="M1949.97,1189.14L1248.35,1191.93C1249.69,1153.41 1264.42,1125.63 1299.72,1114.35C1362.25,1088.55 1517.45,1054.14 1524.03,1010.96L1691.01,1009.63C1697.15,1053.43 1853.72,1085.66 1904.49,1115.49C1952.05,1133.79 1950.82,1161.51 1949.97,1189.14Z" style="fill:black;stroke-width:27.55px;stroke:black;"/>
        </g>
        <g transform="matrix(0.770641,0,0,0.810472,358.117,138.451)">
            <ellipse cx="1606.3" cy="896.556" rx="162.539" ry="170.259" style="fill:black;stroke-width:36.88px;stroke:black;"/>
        </g>
    </g>
</svg>
